<svg xmlns="http://www.w3.org/2000/svg" width="172" height="233" viewBox="0 0 172 233">
  <path fill="none" stroke="#AAA7A7" stroke-width="4" d="M19.5780173 217.191406C40.9103802 217.191406 45.0920409 185.862674 43.6561423 170.167969 41.9019548 150.994292 4.28503299 144.821833.367079783 114.25-1.28308765 101.373725 2.59291375 88.1763143 12.7537985 79.3867188 16.3855937 76.2450622 34.6543145 66.5318521 35.902236 56.4804688 38.093179 38.8335204 30.6286985 30.440388 23.1483298 13.9570312M69.511611 221.175781C72.4362925 210.191551 85.018004 173.561854 82.4412985 156.339844 79.3325809 135.562007 45.6234931 136.37648 52.3202048 109.855469 57.3509096 89.9323504 128.99056 56.6620077 93.2186423 27.6328125 89.9288156 24.9630921 85.9634339 23.2552083 82.3358298 21.0664062M118.589736 227.773438C145.448467 227.773438 162.099781 176.99748 158.546767 155.070312 155.39841 135.640448 129.405144 123.059542 116.816299 113.832031 110.344424 109.088205 110.047323 98.7907891 111.527236 91.6367188 114.557324 76.9889285 139.023199 66.3709916 146.538955 59.90625 160.920045 47.5362317 166.995654 27.8073535 166.14833 9.2109375 166.052986 7.1184121 163.325831 5.93874457 161.417861 5.07421875 156.437817 2.81769619 151.019424 1.69140625 145.820205 0" transform="translate(2.98 2.285)"/>
</svg>
