<svg xmlns="http://www.w3.org/2000/svg" width="592" height="569" viewBox="0 0 592 569">
  <path fill="none" stroke="#979797" d="M344.171875,248.972656 C336.916362,263.164173 324.279181,267.502862 307.617188,263.492188 C304.784536,262.810346 302.933241,259.926764 301.117188,257.648438 C294.456375,249.292127 288.46038,240.425558 282.28125,231.707031 C266.122814,208.908068 264.56902,165.926155 295.484375,153.417969 C300.890808,151.230555 321.492305,144.782854 331.195313,144.53125 C349.257399,144.062891 376.822651,142.167423 393.449219,154.085938 C404.376285,161.918846 411.023205,174.327711 417.511719,185.550781 C429.485773,206.262098 435.355404,217.566547 436.054688,241.519531 C437.480786,290.368534 434.637026,301.391883 399.640625,334.5625 C378.646986,354.460888 350.654481,366.142791 321.890625,368.496094 C306.21383,369.778684 290.375061,369.883625 274.703125,368.542969 C268.626777,368.023168 262.901058,365.327994 257.277344,362.96875 C252.234322,360.853117 247.342122,358.280208 242.839844,355.175781 C233.668418,348.851868 224.550174,342.333549 216.375,334.765625 C210.865187,329.66508 206.300175,323.574996 202.03125,317.398437 C193.546233,305.121763 185.003563,292.781857 178.183594,279.507812 C173.43654,270.268385 169.854422,260.348312 167.519531,250.226563 C165.128409,239.86105 164.645991,229.120281 164.109375,218.496094 C163.255269,201.586078 163.161818,184.63754 163.351562,167.707031 C163.413384,162.190825 163.886985,156.656037 164.863281,151.226563 C165.658133,146.806154 167.049098,142.492831 168.640625,138.292969 C170.246252,134.055898 171.807549,129.69025 174.425781,125.992188 C208.451443,77.933421 318.855637,82.4545347 369.117188,92.8515625 C385.337315,96.2068334 447.944727,98.8545634 470.15625,124.832031 C490.804319,148.980962 519.831239,206.567533 515.898438,239.851563 C508.817168,299.78166 455.178786,364.948041 413.488281,404.042969 C381.165017,434.353845 343.270565,460.945305 298.808594,468.835938 C289.614019,470.467692 280.35258,471.952574 271.027344,472.445312 C257.537048,473.15813 243.810551,474.752998 230.5,472.445312 C218.257373,470.322775 206.787901,464.759595 195.59375,459.367188 C185.150135,454.336325 175.308021,448.044742 165.871094,441.3125 C156.910244,434.919889 148.100354,428.123209 140.558594,420.105469 C128.353244,407.129808 117.049563,393.236085 106.886719,378.605469 C98.4314395,366.433094 91.8180294,353.067115 84.890625,339.964844 C78.0391382,327.00616 71.5959915,313.823629 65.5703125,300.460938 C51.4225289,269.086469 37.6474218,237.539197 24.3828125,205.78125 C18.4709141,191.627064 12.4946111,177.440408 8.0546875,162.757813 C4.93508232,152.441441 3.0086023,141.74668 1.78125,131.039063 C0.90773623,123.418389 1.01437061,115.659485 1.78125,108.027344 C2.09037184,104.9509 3.28113572,101.907164 4.96875,99.3164063 C15.4040724,83.2965207 26.8052696,67.9245134 38,52.4257813 C40.2890629,49.2566498 42.5753598,46.0281885 45.40625,43.3320313 C49.9984876,38.958356 53.9999181,32.8266816 60.1601562,31.3203125 C106.157517,20.0725321 153.077334,12.8662638 199.863281,5.5625 C259.734723,-3.78404307 320.226797,2.21081448 378.617187,16.4960938 C410.259085,24.2373221 433.468855,28.6595704 459.023437,47.1132813 C485.170686,65.9949736 510.489803,106.441147 524.972656,133.148438 C560.696869,199.026126 604.821648,266.78416 586.902344,344.886719 C564.823979,441.116837 442.963256,521.689306 364.949219,567.734375"/>
</svg>
