<svg xmlns="http://www.w3.org/2000/svg" width="200" height="120"><ellipse cx="100" cy="60" fill="#FDC970" rx="100" ry="60"/><path fill="#794545" d="M69.543 33.548c-3.68 0-7.766-2.432-11.371-1.248-1.897.623-1.79 5.97 2.418 6.335 4.82.418 9.293.388 8.781-5.513-.016-.184-.327-.123-.49-.184m54.015-13.082c-4.19-.455-8.563-2.738-12.573-1.366-1.691.578-1.765 5.453 0 5.665l.512.547c2.449.293 4.927.618 7.383.4 3.763-.334 4.97-4.56 1.558-6.24m34.206 31.426c-1.626-1.156-3.18-2.432-4.876-3.467-5.492-3.355-9.125-.748-6.481 6.481.257.705 1.214.92 1.923.984 2.334.213 4.739.373 7.025-.167.626-.148.805-2.98.805-5.872m-62.014 26.12c-.236-.067-7.697-2.715-9.63-2.027-1.255.446-4.434 1.922-3.216 2.473l-.35 4.063c6.94 3.136 10.884.809 10.273-4.815M41.147 60.946c-6.785.4 1.564.248-5.59-.803-2.81-.413-10.452 2.464-5.451 6.194 6.632 4.946 11.372.453 10.248-5.747m101.43 32.484c-6.049 0 1.75.286-10.57-3.407-3.535-1.059-5.901 4.27-3.537 6.498 3.077 2.9 12.913 2.25 12.913-3.143m-27.497-42.428c-2.784-.147-5.575-.693-8.352-.44-1.46.134-1.778 6.341.347 6.707 3.763.649 14.04 1.341 7.385-6.924"/></svg>