<svg width="112.201" height="210.002" viewBox="0 0 112.201 220.002" xmlns="http://www.w3.org/2000/svg"><g id="svgGroup" stroke-linecap="round" fill-rule="evenodd" font-size="9pt" stroke="#000" stroke-width="0.25mm" fill="none" style="stroke:#000;stroke-width:0.25mm;fill:none"><path d="M 69.9 202.801 L 69.9 48.001 L 24.6 82.801 A 6.399 6.399 0 0 1 21.394 84.207 A 8.632 8.632 0 0 1 20.1 84.301 A 6.917 6.917 0 0 1 17.146 83.685 Q 15.549 82.942 14.4 81.301 L 1.5 64.501 A 8.992 8.992 0 0 1 0.536 62.811 A 6.349 6.349 0 0 1 0 60.301 A 6.884 6.884 0 0 1 2.349 55.08 A 10.253 10.253 0 0 1 3.3 54.301 L 70.5 2.101 A 13.492 13.492 0 0 1 77.221 0.02 A 16.314 16.314 0 0 1 78 0.001 L 105 0.001 A 6.937 6.937 0 0 1 110.034 2.036 A 8.261 8.261 0 0 1 110.1 2.101 A 6.933 6.933 0 0 1 112.2 7.108 A 8.51 8.51 0 0 1 112.2 7.201 L 112.2 202.801 A 6.937 6.937 0 0 1 110.165 207.835 A 8.261 8.261 0 0 1 110.1 207.901 A 6.933 6.933 0 0 1 105.094 210.001 A 8.51 8.51 0 0 1 105 210.001 L 77.1 210.001 A 6.937 6.937 0 0 1 72.066 207.966 A 8.261 8.261 0 0 1 72 207.901 A 6.933 6.933 0 0 1 69.901 202.895 A 8.51 8.51 0 0 1 69.9 202.801 Z" id="0" vector-effect="non-scaling-stroke"/></g></svg>