<svg width="158.401" height="213.602" viewBox="0 0 158.401 213.602" xmlns="http://www.w3.org/2000/svg"><g id="svgGroup" stroke-linecap="round" fill-rule="evenodd" font-size="9pt" stroke="#000" stroke-width="0.25mm" fill="none" style="stroke:#000;stroke-width:0.25mm;fill:none"><path d="M 0 206.401 L 0 190.801 A 16.53 16.53 0 0 1 5.539 178.358 A 24.15 24.15 0 0 1 7.5 176.701 L 54.3 130.201 Q 71.856 116.354 82.788 106.685 A 284.114 284.114 0 0 0 87.15 102.751 Q 95.463 95.086 100.746 88.276 A 66.738 66.738 0 0 0 104.4 83.101 A 40.725 40.725 0 0 0 108.091 75.838 A 29.148 29.148 0 0 0 110.1 65.401 A 42.9 42.9 0 0 0 109.214 56.416 Q 107.522 48.517 102.6 43.201 Q 96.199 36.288 84.115 35.275 A 51.694 51.694 0 0 0 79.8 35.101 Q 64.8 35.101 56.25 43.951 A 38.043 38.043 0 0 0 47.292 59.385 A 50.444 50.444 0 0 0 45.6 66.901 A 10.773 10.773 0 0 1 44.717 69.282 A 7.438 7.438 0 0 1 42.15 72.151 Q 39.6 73.801 36.6 73.801 L 9.6 73.801 A 6.653 6.653 0 0 1 7.231 73.392 A 5.979 5.979 0 0 1 5.1 72.001 A 6.072 6.072 0 0 1 3.302 67.674 A 7.973 7.973 0 0 1 3.3 67.501 Q 3.9 49.801 13.05 34.351 Q 22.2 18.901 39.3 9.451 A 74.67 74.67 0 0 1 63.672 1.222 A 98.836 98.836 0 0 1 79.5 0.001 A 116.673 116.673 0 0 1 97.812 1.363 Q 107.979 2.98 116.47 6.517 A 68.024 68.024 0 0 1 120.3 8.251 Q 137.1 16.501 145.5 30.901 A 62.062 62.062 0 0 1 153.685 57.84 A 75.904 75.904 0 0 1 153.9 63.601 Q 153.9 83.701 142.65 100.051 Q 134.496 111.903 119.8 124.936 A 262.373 262.373 0 0 1 107.7 135.001 L 66 177.301 L 150.9 177.301 A 8.466 8.466 0 0 1 153.471 177.675 A 6.898 6.898 0 0 1 156.3 179.401 A 7.089 7.089 0 0 1 158.358 183.885 A 9.621 9.621 0 0 1 158.4 184.801 L 158.4 206.401 A 8.399 8.399 0 0 1 158.105 208.686 A 6.3 6.3 0 0 1 156.3 211.651 A 7.196 7.196 0 0 1 152.381 213.494 A 9.889 9.889 0 0 1 150.9 213.601 L 7.2 213.601 A 6.937 6.937 0 0 1 2.166 211.566 A 8.261 8.261 0 0 1 2.1 211.501 A 6.933 6.933 0 0 1 0.001 206.495 A 8.51 8.51 0 0 1 0 206.401 Z" id="0" vector-effect="non-scaling-stroke"/></g></svg>