<svg xmlns="http://www.w3.org/2000/svg" viewBox="0 0 500 500">
    <g stroke-width="2.01">
        <path d="M215.147 235.789c0-13.921 2.609-31.501 9.735-40.624 7.126-9.123 16.97-14.765 27.844-14.765 10.874 0 19.62 7.386 26.746 16.509 7.126 9.123 10.788 21.702 10.788 35.623 0 13.921-3.459 22.429-10.585 31.552-7.125 9.122-12.332 13.435-23.205 13.435-10.874 0-23.002-2.074-30.127-11.196-7.126-9.123-11.196-16.613-11.196-30.534z"/>
        <path d="M205.187 323.226c0-8.119 4.213-14.701 9.409-14.701 5.196 0 9.408 6.582 9.408 14.701 0 8.118-4.212 14.7-9.408 14.7s-9.409-6.582-9.409-14.7zM293.551 319.291c0-8.925 4.846-16.16 10.823-16.16 5.978 0 10.823 7.235 10.823 16.16 0 8.924-4.845 16.159-10.823 16.159-5.977 0-10.823-7.235-10.823-16.159z"
              fill="#f19c9b"/>
        <path d="M229.946 274.792s-5.261 8.975-6.499 21.044c-1.025 9.994-1.857 18.26-1.857 18.26M279.153 272.316s10.832 4.642 13.618 16.093c2.534 10.418 1.237 24.139 1.237 24.139M220.661 335.45c5.444-2.722 11.362-3.758 17.022-.928M299.579 335.45c-1.935-.968-11.913-5.366-13.927-4.023-.726.484-.382 1.238-1.547 1.238"
        />
        <path d="M234.278 293.051c0-.413-.412-1.238 0-1.238 1.668 0 4.643 13.875 4.643 15.784 0 4.959 2.206 10.673.928 15.783-.85 3.4-2.785 7.94-2.785 11.142 0 1.193 6.402 3.767 7.427 4.023 1.647.411 15.261-.357 15.784-.619.806-.403-1.665-6.588-1.857-7.737-.745-4.471-.309-9.694-.309-14.236 0-4.25.619-8.431.619-12.689 0-1.797 1.504-4.867 1.237-4.333M258.728 322.761c-7.006 3.503-12.204 2.1-18.879-1.238M283.796 292.742c.986.493-3.82 15.692-4.333 18.259-.657 3.283.329 15.522 1.547 18.569.242.603 2.746 6.848 2.476 7.118-.384.385-5.04.409-5.88.619-1.674.418-9.107 3.031-11.801 3.412"
        />
        <path d="M260.638 331.316c-1.148-2.749.841-6.735 1.254-9.045.532-2.978-.207-4.517.481-11.165.353-3.416-.747-8.617 2.239-11.603M279.153 323.071c0 .774-11.479 2.933-13.307 2.476-.611-.153-1.186-.442-1.761-.729M251.919 248.64c4.274-3.209-.345-2.916-1.238-2.321-.9.6-2.26 4.947 1.238 2.321zM262.596 245.546c-1.045-.291-2.513-.396-2.94-1.393-.317-.741.978-1.287 1.547-1.857 1.309-1.308 4.775 3.254 4.024 3.404-.862.173-1.785.081-2.631-.154z"
        />
        <path d="M234.094 214.844c-3.724 0-6.75 4.175-6.75 9.312s3.026 9.282 6.75 9.282c3.723 0 6.75-4.145 6.75-9.282 0-5.137-3.027-9.312-6.75-9.312zm2.75 1.968c1.562 0 2.812 1.475 2.812 3.282 0 1.806-1.25 3.281-2.812 3.281-1.562 0-2.844-1.475-2.844-3.281 0-1.807 1.282-3.282 2.844-3.282zM350.025-63.163c0-1.367.762-2.475 1.702-2.475s1.702 1.108 1.702 2.475c0 1.368-.762 2.476-1.702 2.476s-1.702-1.108-1.702-2.476zM267.469 212.156c-3.471 0-6.281 4.071-6.281 9.094s2.81 9.094 6.281 9.094c3.471 0 6.281-4.071 6.281-9.094s-2.81-9.094-6.281-9.094zm2.937 3.438c1.599 0 2.906 1.431 2.906 3.187 0 1.756-1.307 3.188-2.906 3.188-1.599 0-2.875-1.432-2.875-3.188 0-1.755 1.276-3.187 2.875-3.187z"/>
        <path d="M263.356 264.417c-3.306 1.653-6.634 4.298-10.289.643M281.696 195.885c3.242-6.485 3.193-8.971 1.422-16.053-.309-1.237-.27-3.928-1.219-4.877-.342-.342-2.702 1.069-3.454 1.219-5.429 1.086-6.3 4.848-6.3 9.957"
        />
        <path d="M276.412 182.27c0-.738.204 1.99.204 2.642 0 1.177-1.258 2.922-1.829 4.064M220.937 195.276c0 .483-3.159-.896-3.861-1.423-1.671-1.252-10.088-8.128-10.77-8.128-1.147 0 1.108 6.779 1.219 7.112 2.339 7.017 2.403 12.576 9.144 17.07M215.45 199.746c.24.481-3.637-4.562-4.267-4.877M249.995 179.222c0-1.258-2.099-2.821-2.845-4.064-2.8-4.667-5.478-9.332-7.925-14.225-2.002-4.005-2.817-8.465-4.47-12.599-.463-1.156-.177-3.454-1.423-3.454-.345 0-.203.671-.203 1.016 0 2.84.405 6.109 0 8.941-1.376 9.636-.203 20.458-.203 30.278"
        />
        <path d="M243.696 171.094c1.101 0-2.697 2.835-3.251 3.251-3.119 2.339-4.881 1.827-8.129.203M240.648 163.575c-3.953 0-2.706 5.658-8.738 2.642"
        />
        <path d="M236.584 155.447c.951 1.902-3.487 5.829-4.674 3.454" fill="#8b5655"/>
        <path d="M255.156 180.158c4.551-2.435 12.502 2.215 10.77 9.144-.763 3.051-4.307 10.403-6.503 12.599-1.072 1.073-8.901 8.149-10.973 7.113-3.197-1.599 2.184-10.717 2.642-13.006.496-2.483 1.712-14.591 4.064-15.85z"
              fill="#a2f4f6"/>
        <path d="M252.108 182.596c1.867-.933.551-4.006-.61-4.877-1.732-1.298-4.877-.203-6.503.61-5.177 2.589-8.027 14.43-9.347 19.711-.295 1.178-2.518 5.673-1.829 6.706 2.798 4.198 18.719-9.705 17.476-12.192"
              fill="#a988ca"/>
        <path d="M238.899 184.019c1.514-3.027-5.447-2.268-6.706-1.219-5.691 4.743-5.432 12.382-7.112 19.101-.241.963-2.476 5.246-1.626 6.097 1.066 1.065 3.603-1.418 4.064-2.033 2.469-3.292 8.332-7.5 8.332-11.989M240.343 322.179c-.463.103-.646-.043-.508.508.521 2.083-3.689 10.13-2.642 11.177 4.919 4.919 15.213 5.9 21.744 4.267 1.152-.288.234-12.567-.813-13.615-.822-.822-16.572-2.605-17.781-2.337zM276.406 323.25c-3.139.245-6.769 1.941-9.594 2.031-1.358.044-6.926.583-5.968.594.596.007.026 2.503.187 3.937.32 2.847.931 2.282 1.253 5.153.095.847 2.15 4.356 2.841 5.035 1.051 1.033 3.136.435 4.313.031 3.249-1.114 6.188-2.5 9.531-3.343 1.151-.291 3.381-.203 4.343-.938.089-.067-1.71-3.458-1.843-4.156-.322-1.685-.082-7.188-2.125-8-.887-.353-1.891-.426-2.938-.344z"
              fill="#f19c9b" fill-opacity=".994"/>
    </g>
</svg>