<svg xmlns="http://www.w3.org/2000/svg" width="113" height="199" viewBox="0 0 113 199">
  <g fill="none" fill-rule="evenodd" stroke="#000" stroke-width="2.01" transform="translate(1 1)">
    <path d="M10.147,91.789 C10.147,77.868 12.756,60.288 19.882,51.165 C27.008,42.042 36.852,36.4 47.726,36.4 C58.6,36.4 67.346,43.786 74.472,52.909 C81.598,62.032 85.26,74.611 85.26,88.532 C85.26,102.453 81.801,110.961 74.675,120.084 C67.55,129.206 62.343,133.519 51.47,133.519 C40.596,133.519 28.468,131.445 21.343,122.323 C14.217,113.2 10.147,105.71 10.147,91.789 L10.147,91.789 Z"/>
    <path fill="#F19C9B" d="M0.187,179.226 C0.187,171.107 4.4,164.525 9.596,164.525 C14.792,164.525 19.004,171.107 19.004,179.226 C19.004,187.344 14.792,193.926 9.596,193.926 C4.4,193.926 0.187,187.344 0.187,179.226 Z M88.551,175.291 C88.551,166.366 93.397,159.131 99.374,159.131 C105.352,159.131 110.197,166.366 110.197,175.291 C110.197,184.215 105.352,191.45 99.374,191.45 C93.397,191.45 88.551,184.215 88.551,175.291 Z"/>
    <path d="M24.946,130.792 C24.946,130.792 19.685,139.767 18.447,151.836 C17.422,161.83 16.59,170.096 16.59,170.096 M74.153,128.316 C74.153,128.316 84.985,132.958 87.771,144.409 C90.305,154.827 89.008,168.548 89.008,168.548 M15.661,191.45 C21.105,188.728 27.023,187.692 32.683,190.522 M94.579,191.45 C92.644,190.482 82.666,186.084 80.652,187.427 C79.926,187.911 80.27,188.665 79.105,188.665"/>
    <path d="M29.278,149.051 C29.278,148.638 28.866,147.813 29.278,147.813 C30.946,147.813 33.921,161.688 33.921,163.597 C33.921,168.556 36.127,174.27 34.849,179.38 C33.999,182.78 32.064,187.32 32.064,190.522 C32.064,191.715 38.466,194.289 39.491,194.545 C41.138,194.956 54.752,194.188 55.275,193.926 C56.081,193.523 53.61,187.338 53.418,186.189 C52.673,181.718 53.109,176.495 53.109,171.953 C53.109,167.703 53.728,163.522 53.728,159.264 C53.728,157.467 55.232,154.397 54.965,154.931 M53.728,178.761 C46.722,182.264 41.524,180.861 34.849,177.523 M78.796,148.742 C79.782,149.235 74.976,164.434 74.463,167.001 C73.806,170.284 74.792,182.523 76.01,185.57 C76.252,186.173 78.756,192.418 78.486,192.688 C78.102,193.073 73.446,193.097 72.606,193.307 C70.932,193.725 63.499,196.338 60.805,196.719"/>
    <path d="M55.638,187.316 C54.49,184.567 56.479,180.581 56.892,178.271 C57.424,175.293 56.685,173.754 57.373,167.106 C57.726,163.69 56.626,158.489 59.612,155.503 L55.638,187.316 Z M74.153,179.071 C74.153,179.845 62.674,182.004 60.846,181.547 C60.235,181.394 59.66,181.105 59.085,180.818 L74.153,179.071 Z M46.919,104.64 C51.193,101.431 46.574,101.724 45.681,102.319 C44.781,102.919 43.421,107.266 46.919,104.64 Z M57.596,101.546 C56.551,101.255 55.083,101.15 54.656,100.153 C54.339,99.412 55.634,98.866 56.203,98.296 C57.512,96.988 60.978,101.55 60.227,101.7 C59.365,101.873 58.442,101.781 57.596,101.546 L57.596,101.546 Z"/>
    <path fill="#000" d="M29.094,70.844 C25.37,70.844 22.344,75.019 22.344,80.156 C22.344,85.293 25.37,89.438 29.094,89.438 C32.817,89.438 35.844,85.293 35.844,80.156 C35.844,75.019 32.817,70.844 29.094,70.844 Z M31.844,72.812 C33.406,72.812 34.656,74.287 34.656,76.094 C34.656,77.9 33.406,79.375 31.844,79.375 C30.282,79.375 29,77.9 29,76.094 C29,74.287 30.282,72.812 31.844,72.812 Z M62.469,68.156 C58.998,68.156 56.188,72.227 56.188,77.25 C56.188,82.273 58.998,86.344 62.469,86.344 C65.94,86.344 68.75,82.273 68.75,77.25 C68.75,72.227 65.94,68.156 62.469,68.156 Z M65.406,71.594 C67.005,71.594 68.312,73.025 68.312,74.781 C68.312,76.537 67.005,77.969 65.406,77.969 C63.807,77.969 62.531,76.537 62.531,74.781 C62.531,73.026 63.807,71.594 65.406,71.594 Z"/>
    <path d="M58.356,120.417 C55.05,122.07 51.722,124.715 48.067,121.06 M76.696,51.885 C79.938,45.4 79.889,42.914 78.118,35.832 C77.809,34.595 77.848,31.904 76.899,30.955 C76.557,30.613 74.197,32.024 73.445,32.174 C68.016,33.26 67.145,37.022 67.145,42.131"/>
    <path d="M71.412,38.27 C71.412,37.532 71.616,40.26 71.616,40.912 C71.616,42.089 70.358,43.834 69.787,44.976 M15.937,51.276 C15.937,51.759 12.778,50.38 12.076,49.853 C10.405,48.601 1.988,41.725 1.306,41.725 C0.159,41.725 2.414,48.504 2.525,48.837 C4.864,55.854 4.928,61.413 11.669,65.907 M10.45,55.746 C10.69,56.227 6.813,51.184 6.183,50.869 M44.995,35.222 C44.995,33.964 42.896,32.401 42.15,31.158 C39.35,26.491 36.672,21.826 34.225,16.933 C32.223,12.928 31.408,8.468 29.755,4.334 C29.292,3.178 29.578,0.88 28.332,0.88 C27.987,0.88 28.129,1.551 28.129,1.896 C28.129,4.736 28.534,8.005 28.129,10.837 C26.753,20.473 27.926,31.295 27.926,41.115"/>
    <path d="M38.696,27.094 C39.797,27.094 35.999,29.929 35.445,30.345 C32.326,32.684 30.564,32.172 27.316,30.548 M35.648,19.575 C31.695,19.575 32.942,25.233 26.91,22.217"/>
    <path fill="#8B5655" d="M31.584,11.447 C32.535,13.349 28.097,17.276 26.91,14.901"/>
    <path fill="#A2F4F6" d="M50.156,36.158 C54.707,33.723 62.658,38.373 60.926,45.302 C60.163,48.353 56.619,55.705 54.423,57.901 C53.351,58.974 45.522,66.05 43.45,65.014 C40.253,63.415 45.634,54.297 46.092,52.008 C46.588,49.525 47.804,37.417 50.156,36.158 L50.156,36.158 Z"/>
    <path fill="#A988CA" d="M47.108,38.596 C48.975,37.663 47.659,34.59 46.498,33.719 C44.766,32.421 41.621,33.516 39.995,34.329 C34.818,36.918 31.968,48.759 30.648,54.04 C30.353,55.218 28.13,59.713 28.819,60.746 C31.617,64.944 47.538,51.041 46.295,48.554"/>
    <path fill="#F19C9B" fill-opacity=".994" d="M33.899,40.019 C35.413,36.992 28.452,37.751 27.193,38.8 C21.502,43.543 21.761,51.182 20.081,57.901 C19.84,58.864 17.605,63.147 18.455,63.998 C19.521,65.063 22.058,62.58 22.519,61.965 C24.988,58.673 30.851,54.465 30.851,49.976 L33.899,40.019 Z M35.343,178.179 C34.88,178.282 34.697,178.136 34.835,178.687 C35.356,180.77 31.146,188.817 32.193,189.864 C37.112,194.783 47.406,195.764 53.937,194.131 C55.089,193.843 54.171,181.564 53.124,180.516 C52.302,179.694 36.552,177.911 35.343,178.179 L35.343,178.179 Z M71.406,179.25 C68.267,179.495 64.637,181.191 61.812,181.281 C60.454,181.325 54.886,181.864 55.844,181.875 C56.44,181.882 55.87,184.378 56.031,185.812 C56.351,188.659 56.962,188.094 57.284,190.965 C57.379,191.812 59.434,195.321 60.125,196 C61.176,197.033 63.261,196.435 64.438,196.031 C67.687,194.917 70.626,193.531 73.969,192.688 C75.12,192.397 77.35,192.485 78.312,191.75 C78.401,191.683 76.602,188.292 76.469,187.594 C76.147,185.909 76.387,180.406 74.344,179.594 C73.457,179.241 72.453,179.168 71.406,179.25 L71.406,179.25 Z"/>
  </g>
</svg>
