<?xml version="1.0" encoding="UTF-8" standalone="no"?> <!-- Created with Vectornator for iOS (http://vectornator.io/) --><!DOCTYPE svg PUBLIC "-//W3C//DTD SVG 1.1//EN" "http://www.w3.org/Graphics/SVG/1.1/DTD/svg11.dtd">
<svg style="fill-rule:evenodd;clip-rule:evenodd;stroke-linecap:round;stroke-linejoin:round;" xmlns:vectornator="http://vectornator.io" xmlns:xlink="http://www.w3.org/1999/xlink" xmlns="http://www.w3.org/2000/svg" xml:space="preserve" version="1.1" viewBox="0 0 500 500">
<metadata>
<vectornator:setting key="DisplayWhiteBackground" value="0"/>
<vectornator:setting key="RulersVisible" value="1"/>
<vectornator:setting key="SnapToEdges" value="0"/>
<vectornator:setting key="Units" value="Pixels"/>
<vectornator:setting key="DynamicGuides" value="0"/>
<vectornator:setting key="SnapToPoints" value="0"/>
<vectornator:setting key="SnapToGrid" value="0"/>
<vectornator:setting key="SnapToGuides" value="1"/>
<vectornator:setting key="ShowGrid" value="1"/>
<vectornator:setting key="GridSpacing" value="36"/>
</metadata>
<defs>
</defs>
<g id="Layer 1" vectornator:layerName="Layer 1">
<use opacity="0" xlink:href="#Image" transform="matrix(0.429185 0 0 0.429185 -3.8743e-06 126.609)"/>
<use opacity="0" xlink:href="#Image" transform="matrix(0.429185 0 0 0.429185 -3.8743e-06 126.609)"/>
<path stroke="#000000" stroke-width="2.01" d="M215.147+235.789C215.147+221.868+217.756+204.288+224.882+195.165C232.008+186.042+241.852+180.4+252.726+180.4C263.6+180.4+272.346+187.786+279.472+196.909C286.598+206.032+290.26+218.611+290.26+232.532C290.26+246.453+286.801+254.961+279.675+264.084C272.55+273.206+267.343+277.519+256.47+277.519C245.596+277.519+233.468+275.445+226.343+266.323C219.217+257.2+215.147+249.71+215.147+235.789Z" fill="#ffffff" stroke-linecap="round" fill-opacity="0" opacity="1" stroke-linejoin="round"/>
<path stroke="#000000" stroke-width="2.01" d="M205.187+323.226C205.187+315.107+209.4+308.525+214.596+308.525C219.792+308.525+224.004+315.107+224.004+323.226C224.004+331.344+219.792+337.926+214.596+337.926C209.4+337.926+205.187+331.344+205.187+323.226Z" fill="#f19c9b" stroke-linecap="round" opacity="1" stroke-linejoin="round"/>
<path stroke="#000000" stroke-width="2.01" d="M293.551+319.291C293.551+310.366+298.397+303.131+304.374+303.131C310.352+303.131+315.197+310.366+315.197+319.291C315.197+328.215+310.352+335.45+304.374+335.45C298.397+335.45+293.551+328.215+293.551+319.291Z" fill="#f19c9b" stroke-linecap="round" opacity="1" stroke-linejoin="round"/>
<path stroke="#000000" stroke-width="2.01" d="M229.946+274.792C229.946+274.792+224.685+283.767+223.447+295.836C222.422+305.83+221.59+314.096+221.59+314.096" fill="#ffffff" stroke-linecap="round" fill-opacity="0" opacity="1" stroke-linejoin="round"/>
<path stroke="#000000" stroke-width="2.01" d="M279.153+272.316C279.153+272.316+289.985+276.958+292.771+288.409C295.305+298.827+294.008+312.548+294.008+312.548" fill="#ffffff" stroke-linecap="round" fill-opacity="0" opacity="1" stroke-linejoin="round"/>
<path stroke="#000000" stroke-width="2.01" d="M220.661+335.45C226.105+332.728+232.023+331.692+237.683+334.522" fill="#ffffff" stroke-linecap="round" fill-opacity="0" opacity="1" stroke-linejoin="round"/>
<path stroke="#000000" stroke-width="2.01" d="M299.579+335.45C297.644+334.482+287.666+330.084+285.652+331.427C284.926+331.911+285.27+332.665+284.105+332.665" fill="#ffffff" stroke-linecap="round" fill-opacity="0" opacity="1" stroke-linejoin="round"/>
<path stroke="#000000" stroke-width="2.01" d="M234.278+293.051C234.278+292.638+233.866+291.813+234.278+291.813C235.946+291.813+238.921+305.688+238.921+307.597C238.921+312.556+241.127+318.27+239.849+323.38C238.999+326.78+237.064+331.32+237.064+334.522C237.064+335.715+243.466+338.289+244.491+338.545C246.138+338.956+259.752+338.188+260.275+337.926C261.081+337.523+258.61+331.338+258.418+330.189C257.673+325.718+258.109+320.495+258.109+315.953C258.109+311.703+258.728+307.522+258.728+303.264C258.728+301.467+260.232+298.397+259.965+298.931" fill="#ffffff" stroke-linecap="round" fill-opacity="0" opacity="1" stroke-linejoin="round"/>
<path stroke="#000000" stroke-width="2.01" d="M258.728+322.761C251.722+326.264+246.524+324.861+239.849+321.523" fill="#ffffff" stroke-linecap="round" fill-opacity="0" opacity="1" stroke-linejoin="round"/>
<path stroke="#000000" stroke-width="2.01" d="M283.796+292.742C284.782+293.235+279.976+308.434+279.463+311.001C278.806+314.284+279.792+326.523+281.01+329.57C281.252+330.173+283.756+336.418+283.486+336.688C283.102+337.073+278.446+337.097+277.606+337.307C275.932+337.725+268.499+340.338+265.805+340.719" fill="#ffffff" stroke-linecap="round" fill-opacity="0" opacity="1" stroke-linejoin="round"/>
<path stroke="#000000" stroke-width="2.01" d="M260.638+331.316C259.49+328.567+261.479+324.581+261.892+322.271C262.424+319.293+261.685+317.754+262.373+311.106C262.726+307.69+261.626+302.489+264.612+299.503" fill="#ffffff" stroke-linecap="round" fill-opacity="0" opacity="1" stroke-linejoin="round"/>
<path stroke="#000000" stroke-width="2.01" d="M279.153+323.071C279.153+323.845+267.674+326.004+265.846+325.547C265.235+325.394+264.66+325.105+264.085+324.818" fill="#ffffff" stroke-linecap="round" fill-opacity="0" opacity="1" stroke-linejoin="round"/>
<path stroke="#000000" stroke-width="2.01" d="M251.919+248.64C256.193+245.431+251.574+245.724+250.681+246.319C249.781+246.919+248.421+251.266+251.919+248.64Z" fill="#ffffff" stroke-linecap="round" fill-opacity="0" opacity="1" stroke-linejoin="round"/>
<path stroke="#000000" stroke-width="2.01" d="M262.596+245.546C261.551+245.255+260.083+245.15+259.656+244.153C259.339+243.412+260.634+242.866+261.203+242.296C262.512+240.988+265.978+245.55+265.227+245.7C264.365+245.873+263.442+245.781+262.596+245.546Z" fill="#ffffff" stroke-linecap="round" fill-opacity="0" opacity="1" stroke-linejoin="round"/>
<path stroke="#000000" stroke-width="2.01" d="M234.094+214.844C230.37+214.844+227.344+219.019+227.344+224.156C227.344+229.293+230.37+233.438+234.094+233.438C237.817+233.438+240.844+229.293+240.844+224.156C240.844+219.019+237.817+214.844+234.094+214.844ZM236.844+216.812C238.406+216.812+239.656+218.287+239.656+220.094C239.656+221.9+238.406+223.375+236.844+223.375C235.282+223.375+234+221.9+234+220.094C234+218.287+235.282+216.812+236.844+216.812Z" fill="#000000" stroke-linecap="round" opacity="1" stroke-linejoin="round"/>
<path stroke="#000000" stroke-width="2.01" d="M350.025-63.1626C350.025-64.53+350.787-65.6384+351.727-65.6384C352.667-65.6384+353.429-64.53+353.429-63.1626C353.429-61.7952+352.667-60.6867+351.727-60.6867C350.787-60.6867+350.025-61.7952+350.025-63.1626Z" fill="#000000" stroke-linecap="round" opacity="1" stroke-linejoin="round"/>
<path stroke="#000000" stroke-width="2.01" d="M267.469+212.156C263.998+212.156+261.188+216.227+261.188+221.25C261.188+226.273+263.998+230.344+267.469+230.344C270.94+230.344+273.75+226.273+273.75+221.25C273.75+216.227+270.94+212.156+267.469+212.156ZM270.406+215.594C272.005+215.594+273.312+217.025+273.312+218.781C273.312+220.537+272.005+221.969+270.406+221.969C268.807+221.969+267.531+220.537+267.531+218.781C267.531+217.026+268.807+215.594+270.406+215.594Z" fill="#000000" stroke-linecap="round" opacity="1" stroke-linejoin="round"/>
<path stroke="#000000" stroke-width="2.01" d="M263.356+264.417C260.05+266.07+256.722+268.715+253.067+265.06" fill="#ffffff" stroke-linecap="round" fill-opacity="0" opacity="1" stroke-linejoin="round"/>
<path stroke="#000000" stroke-width="2.01" d="M281.696+195.885C284.938+189.4+284.889+186.914+283.118+179.832C282.809+178.595+282.848+175.904+281.899+174.955C281.557+174.613+279.197+176.024+278.445+176.174C273.016+177.26+272.145+181.022+272.145+186.131" fill="#ffffff" stroke-linecap="round" fill-opacity="0" opacity="1" stroke-linejoin="round"/>
<path stroke="#000000" stroke-width="2.01" d="M276.412+182.27C276.412+181.532+276.616+184.26+276.616+184.912C276.616+186.089+275.358+187.834+274.787+188.976" fill="#ffffff" stroke-linecap="round" fill-opacity="0" opacity="1" stroke-linejoin="round"/>
<path stroke="#000000" stroke-width="2.01" d="M220.937+195.276C220.937+195.759+217.778+194.38+217.076+193.853C215.405+192.601+206.988+185.725+206.306+185.725C205.159+185.725+207.414+192.504+207.525+192.837C209.864+199.854+209.928+205.413+216.669+209.907" fill="#ffffff" stroke-linecap="round" fill-opacity="0" opacity="1" stroke-linejoin="round"/>
<path stroke="#000000" stroke-width="2.01" d="M215.45+199.746C215.69+200.227+211.813+195.184+211.183+194.869" fill="#ffffff" stroke-linecap="round" fill-opacity="0" opacity="1" stroke-linejoin="round"/>
<path stroke="#000000" stroke-width="2.01" d="M249.995+179.222C249.995+177.964+247.896+176.401+247.15+175.158C244.35+170.491+241.672+165.826+239.225+160.933C237.223+156.928+236.408+152.468+234.755+148.334C234.292+147.178+234.578+144.88+233.332+144.88C232.987+144.88+233.129+145.551+233.129+145.896C233.129+148.736+233.534+152.005+233.129+154.837C231.753+164.473+232.926+175.295+232.926+185.115" fill="#ffffff" stroke-linecap="round" fill-opacity="0" opacity="1" stroke-linejoin="round"/>
<path stroke="#000000" stroke-width="2.01" d="M243.696+171.094C244.797+171.094+240.999+173.929+240.445+174.345C237.326+176.684+235.564+176.172+232.316+174.548" fill="#ffffff" stroke-linecap="round" fill-opacity="0" opacity="1" stroke-linejoin="round"/>
<path stroke="#000000" stroke-width="2.01" d="M240.648+163.575C236.695+163.575+237.942+169.233+231.91+166.217" fill="#ffffff" stroke-linecap="round" fill-opacity="0" opacity="1" stroke-linejoin="round"/>
<path stroke="#000000" stroke-width="2.01" d="M236.584+155.447C237.535+157.349+233.097+161.276+231.91+158.901" fill="#8b5655" stroke-linecap="round" opacity="1" stroke-linejoin="round"/>
<path stroke="#000000" stroke-width="2.01" d="M255.156+180.158C259.707+177.723+267.658+182.373+265.926+189.302C265.163+192.353+261.619+199.705+259.423+201.901C258.351+202.974+250.522+210.05+248.45+209.014C245.253+207.415+250.634+198.297+251.092+196.008C251.588+193.525+252.804+181.417+255.156+180.158Z" fill="#a2f4f6" stroke-linecap="round" opacity="1" stroke-linejoin="round"/>
<path stroke="#000000" stroke-width="2.01" d="M252.108+182.596C253.975+181.663+252.659+178.59+251.498+177.719C249.766+176.421+246.621+177.516+244.995+178.329C239.818+180.918+236.968+192.759+235.648+198.04C235.353+199.218+233.13+203.713+233.819+204.746C236.617+208.944+252.538+195.041+251.295+192.554" fill="#a988ca" stroke-linecap="round" opacity="1" stroke-linejoin="round"/>
<path stroke="#000000" stroke-width="2.01" d="M238.899+184.019C240.413+180.992+233.452+181.751+232.193+182.8C226.502+187.543+226.761+195.182+225.081+201.901C224.84+202.864+222.605+207.147+223.455+207.998C224.521+209.063+227.058+206.58+227.519+205.965C229.988+202.673+235.851+198.465+235.851+193.976" fill="#f19c9b" stroke-linecap="round" fill-opacity="0.99397" opacity="1" stroke-linejoin="round"/>
<path stroke="#000000" stroke-width="2.01" d="M240.343+322.179C239.88+322.282+239.697+322.136+239.835+322.687C240.356+324.77+236.146+332.817+237.193+333.864C242.112+338.783+252.406+339.764+258.937+338.131C260.089+337.843+259.171+325.564+258.124+324.516C257.302+323.694+241.552+321.911+240.343+322.179Z" fill="#f19c9b" stroke-linecap="round" fill-opacity="0.99397" opacity="1" stroke-linejoin="round"/>
<path stroke="#000000" stroke-width="2.01" d="M276.406+323.25C273.267+323.495+269.637+325.191+266.812+325.281C265.454+325.325+259.886+325.864+260.844+325.875C261.44+325.882+260.87+328.378+261.031+329.812C261.351+332.659+261.962+332.094+262.284+334.965C262.379+335.812+264.434+339.321+265.125+340C266.176+341.033+268.261+340.435+269.438+340.031C272.687+338.917+275.626+337.531+278.969+336.688C280.12+336.397+282.35+336.485+283.312+335.75C283.401+335.683+281.602+332.292+281.469+331.594C281.147+329.909+281.387+324.406+279.344+323.594C278.457+323.241+277.453+323.168+276.406+323.25Z" fill="#f19c9b" stroke-linecap="round" fill-opacity="0.99397" opacity="1" stroke-linejoin="round"/>
</g>
</svg>
