<svg xmlns="http://www.w3.org/2000/svg" width="0" height="0" viewBox="0 0 136 188">
  <defs>
    <clipPath id="humanClip">
      <path transform="scale(5 5)" d="M136,180 L124,168 L124,162 C124,148.3 113.4,137.1 100,136.1 L100,128 L106,128 C120.4,128 132,116.4 132,102 L132,76 C132,73.8 130.2,72 128,72 C125.8,72 124,73.8 124,76 C124,73.8 122.2,72 120,72 C117.8,72 116,73.8 116,76 C116,73.8 114.2,72 112,72 C109.8,72 108,73.8 108,76 L108,98 C108,101.3 105.3,104 102,104 L100,104 L100,76 L50,76 C44.5,76 40,71.5 40,66 C40,60.5 44.5,56 50,56 L100,56 L100,52 C104.4,52 108,48.4 108,44 C108,39.6 104.4,36 100,36 L100,22 C100,8 92.1,0 78,0 L54,0 C39.9,0 32,8 32,22 L32,36 C27.6,36 24,39.6 24,44 C24,48.4 27.6,52 32,52 L32,104 L30,104 C26.7,104 24,101.3 24,98 L24,76 C24,73.8 22.2,72 20,72 C17.8,72 16,73.8 16,76 C16,73.8 14.2,72 12,72 C9.8,72 8,73.8 8,76 C8,73.8 6.2,72 4,72 C1.8,72 0,73.8 0,76 L0,102 C0,116.4 11.6,128 26,128 L32,128 L32,146 C32,149.3 29.3,152 26,152 L12,152 L12,188 L24,176 L30,176 C40.8,176 50.1,169.4 54,160 L94,160 C97.3,160 100,162.7 100,166 L100,180 L136,180 Z"/>
    </clipPath>
  </defs>
</svg>
