<svg xmlns="http://www.w3.org/2000/svg" width="135" height="190" viewBox="0 0 135 190" preserveAspectRatio="xMidYMid meet">
    <g transform="translate(.7 .4)" id="alien">
        <path fill="#663F4C" fill-rule="nonzero" d="M17,135.1 L0.4,126.8 L17,118.5 L17,118 L0.4,109.7 L17,101.4 L17,100.9 L0.4,92.8 L17,84.5 L17,84 L0.4,75.8 L17,67.5 L17,29 L17,29 C17,29 17,22.1 20.9,16.2 L14,9.3 C13.9,9.2 13.8,9.1 13.8,9 C12.8,9.5 11.5,9.9 9.9,9.9 C8.7,9.9 7.8,8.9 7.8,7.8 C7.8,6.6 8.8,5.7 9.9,5.7 C13.5,5.7 13.5,2.2 13.5,2.1 C13.5,0.9 14.5,0 15.6,0 C16.8,0 17.7,1 17.7,2.1 C17.7,2.1 17.7,4 16.7,6 C16.8,6.1 16.9,6.2 17,6.3 L23.6,12.9 C26.7,10 31.4,7.8 38.2,7.8 L66.5,7.8 C73.3,7.8 77.9,10 81.1,12.9 L87.7,6.3 C87.8,6.2 87.9,6.1 88,6 C87,4.1 87,2.1 87,2.1 C87,0.9 87.9,0 89.1,0 C90.3,0 91.2,0.9 91.2,2.1 C91.2,2.1 91.2,5.7 94.8,5.7 C96,5.7 96.9,6.7 96.9,7.8 C96.9,9 95.9,9.9 94.8,9.9 C93.2,9.9 91.9,9.6 90.9,9 C90.8,9.1 90.8,9.2 90.7,9.3 L83.8,16.2 C87.7,22.1 87.7,29 87.7,29 L87.7,29 L87.7,58.1 L87.7,62.4 L79.4,62.4 L75.6,70 L71.8,62.4 L68,62.4 L64.2,70 L60.4,62.4 L56.6,62.4 L52.8,70 L49.3,62.3 L45.5,62.3 L41.7,69.9 L37.9,62.3 C29,62.5 27.3,73.6 33,77.7 L36,71.7 L39.8,79.3 L43.6,79.3 L47.4,71.7 L51.2,79.3 L55,79.3 L58.8,71.7 L62.6,79.3 L66.3,79.3 L70.1,71.7 L73.9,79.3 L77.7,79.3 L81.5,71.7 L85.3,79.3 C101.7,79.3 118.2,79.3 134.6,79.3 L126.1,86.7 L125.4,87.3 L127.2,88.1 L135.7,92 L127.2,95.9 L125.4,96.7 L126.1,97.3 L134.6,104.7 L87.8,104.7 L87.8,106.8 L134.5,106.8 L126,114.2 L125.3,114.8 L127.1,115.6 L135.6,119.5 L127.1,123.4 L125.3,124.2 L126,124.8 L134.5,132.2 L87.8,132.2 L87.8,133.9 C110.5,136.6 110.5,160.5 110.5,160.6 L110.5,160.6 L110.5,164.5 L122.2,176.2 C109.8,176.2 97.4,176.2 85,176.2 L85,160.6 L85,160.6 C85,160.4 84.9,159.2 83.6,159.2 L40.9,159.2 C35.2,176.2 15.6,176.2 15.6,176.2 L15.6,176.2 L11.7,176.2 L0,188.1 C0,175.7 0,163.3 0,150.9 L15.6,150.9 L15.6,150.9 C15.8,150.9 17,150.8 17,149.5 C17,144.7 17,139.9 17,135.1 L17,135.1 Z"/>
        <path fill="#9EA538" fill-rule="nonzero" d="M117.6,116.2 L123.3,111.2 L106.6,111.2 L83.6,111.2 L83.6,102 L83.6,100.6 L83.6,83.6 L64.4,83.6 L41.8,83.6 L38.3,83.6 C32.2,83.6 28.3,80.2 26.6,75.9 C25.9,74.3 25.6,72.5 25.6,70.8 C25.6,69.1 25.9,67.4 26.6,65.7 C28.3,61.4 32.2,58 38.3,58 L41.8,58 L64.5,58 L83.6,58 L83.6,29 C83.6,29 83.6,12 66.6,12 L64.5,12 L41.8,12 L38.3,12 C21.3,12 21.3,29 21.3,29 L21.3,138.1 L21.3,138.1 L21.3,138.1 L21.3,138.1 L21.3,149.4 C21.3,155.1 15.6,155.1 15.6,155.1 L4.2,155.1 L4.2,172.1 L4.2,177.8 C6.1,175.9 9.9,172.1 9.9,172.1 L15.6,172.1 C15.6,172.1 34.3,172.1 37.7,155.1 C37.9,155.1 38.1,155.1 38.2,155.1 L41.7,155.1 L64.4,155.1 L83.5,155.1 C89.2,155.1 89.2,160.8 89.2,160.8 L89.2,172.1 L106.2,172.1 L106.6,172.1 L111.9,172.1 L106.6,166.8 L106.2,166.4 L106.2,160.7 C106.2,160.7 106.2,138 83.5,138 L83.5,128.1 L106.5,128.1 L123.3,128.1 L117.6,123.1 L125.4,119.6 L117.6,116.2 Z M57.4,39 C59.2,37.2 61.7,36.1 64.4,36.1 C67.1,36.1 69.6,37.2 71.4,39 C73.2,40.8 74.3,43.3 74.3,46 C74.3,48.7 73.2,51.2 71.4,53 C69.6,54.8 67.1,55.9 64.4,55.9 C61.7,55.9 59.2,54.8 57.4,53 C55.6,51.2 54.5,48.7 54.5,46 C54.5,43.3 55.6,40.8 57.4,39 Z M34.8,39 C36.6,37.2 39.1,36.1 41.8,36.1 C44.5,36.1 47,37.2 48.8,39 C50.6,40.8 51.7,43.3 51.7,46 C51.7,48.7 50.6,51.2 48.8,53 C47,54.8 44.5,55.9 41.8,55.9 C39.1,55.9 36.6,54.8 34.8,53 C33,51.2 31.9,48.7 31.9,46 C31.8,43.3 33,40.8 34.8,39 Z"/>
        <path fill="#FFF" d="M64.4 40.3C67.5 40.3 70.1 42.8 70.1 46 70.1 49.1 67.6 51.7 64.4 51.7 61.3 51.7 58.7 49.2 58.7 46 58.8 42.9 61.3 40.3 64.4 40.3zM41.8 40.3C44.9 40.3 47.5 42.8 47.5 46 47.5 49.1 45 51.7 41.8 51.7 38.7 51.7 36.1 49.2 36.1 46 36.1 42.9 38.6 40.3 41.8 40.3L41.8 40.3z"/>
        <polygon fill="#E1CBB5" fill-rule="nonzero" points="17 130.3 17 123.3 9.9 126.8"/>
        <polygon fill="#E1CBB5" fill-rule="nonzero" points="17 79.3 17 72.2 9.9 75.8"/>
        <polygon fill="#E1CBB5" fill-rule="nonzero" points="17 113.3 17 106.2 9.9 109.8"/>
        <polygon fill="#E1CBB5" fill-rule="nonzero" points="17 96.3 17 89.2 9.9 92.8"/>
        <polygon fill="#9EA538" fill-rule="nonzero" points="123.3 83.6 106.6 83.6 87.8 83.6 87.8 100.6 106.6 100.6 123.3 100.6 117.6 95.6 125.4 92.1 117.6 88.5"/>
        <path id="alien-eye" fill="#BE6C33" d="M64.4 43.2C66 43.2 67.2 44.5 67.2 46 67.2 47.5 65.9 48.8 64.4 48.8 62.8 48.8 61.6 47.5 61.6 46 61.6 44.5 62.9 43.2 64.4 43.2L64.4 43.2zM41.8 43.2C43.4 43.2 44.6 44.5 44.6 46 44.6 47.5 43.3 48.8 41.8 48.8 40.2 48.8 39 47.5 39 46 39 44.5 40.2 43.2 41.8 43.2z"/>
    </g>
</svg>
