<svg xmlns="http://www.w3.org/2000/svg" width="266" height="190" viewBox="0 0 266 190" preserveAspectRatio="xMidYMid meet">
  <g fill="none" fill-rule="evenodd">
    <g transform="translate(138.3 8.2)" id="human">
      <path fill="#663F4C" fill-rule="nonzero" d="M19.7,43.8 C19.7,43.8 19.7,35.9 26.8,34.2 L26.8,21.2 L26.8,21.2 C26.8,21.1 26.8,0 48,0 L70.7,0 C91.9,0 91.9,21.2 91.9,21.2 L91.9,21.2 L91.9,34.3 C99,36 99,43.9 99,43.9 L99,44 C99,44 99,51.9 91.9,53.6 L91.9,55.3 L88,55.3 L88,56.7 C88,56.7 88,59.5 85.2,59.5 C82.4,59.5 82.4,56.7 82.4,56.7 L82.4,55.3 L76.7,55.3 L76.7,56.7 C76.7,56.7 76.7,59.5 73.9,59.5 C71.1,59.5 71.1,56.7 71.1,56.7 L71.1,55.3 L65.4,55.3 L65.4,56.7 C65.4,56.7 65.4,59.5 62.6,59.5 C59.8,59.5 59.8,56.7 59.8,56.7 L59.8,55.3 L54.1,55.3 L54.1,56.7 C54.1,56.7 54.1,59.5 51.3,59.5 C48.5,59.5 48.5,56.7 48.5,56.7 L48.5,55.3 L48.1,55.3 C39,55.3 37.3,66.3 42.8,70.6 C42.9,69.9 43.3,68 45.6,68 C48.4,68 48.4,70.8 48.4,70.8 L48.4,72.2 L54.1,72.2 L54.1,70.8 C54.1,70.8 54.1,68 56.9,68 C59.7,68 59.7,70.8 59.7,70.8 L59.7,72.2 L65.4,72.2 L65.4,70.8 C65.4,70.8 65.4,68 68.2,68 C71,68 71,70.8 71,70.8 L71,72.2 L76.7,72.2 L76.7,70.8 C76.7,70.8 76.7,68 79.5,68 C82.3,68 82.3,70.8 82.3,70.8 L82.3,72.2 L83.4,72.2 L91.9,72.2 L91.9,99.1 C93.2,99.1 93.3,97.9 93.3,97.7 L93.3,97.7 L93.3,78.9 L93.3,77.2 C93.3,77.2 93.3,71.2 99.3,71.2 C100.8,71.2 101.9,71.6 102.7,72.1 C103.5,71.6 104.6,71.2 106.1,71.2 C107.6,71.2 108.7,71.6 109.5,72.1 C110.3,71.6 111.4,71.2 112.9,71.2 C118.9,71.2 118.9,77.1 118.9,77.2 L118.9,78.9 L118.9,97.8 L118.9,97.8 C118.9,97.9 118.9,124.7 92,124.7 L92,126.4 C114.7,129.1 114.7,153 114.7,153.1 L114.7,153.1 L114.7,157 L126.4,168.7 C114,168.7 101.6,168.7 89.2,168.7 L89.2,153.1 L89.2,153.1 C89.2,152.9 89.1,151.7 87.8,151.7 L50.8,151.7 C45.1,168.7 25.5,168.7 25.5,168.7 L25.5,168.7 L21.6,168.7 L9.9,180.4 C9.9,168 9.9,155.6 9.9,143.2 L25.5,143.2 L25.5,143.2 C25.7,143.2 26.9,143.1 26.9,141.8 C26.9,136.1 26.9,130.5 26.9,124.8 C-1.42108547e-14,124.8 -1.42108547e-14,98 -1.42108547e-14,97.9 L-1.42108547e-14,97.9 L-1.42108547e-14,86.4 L-1.42108547e-14,78.9 L-1.42108547e-14,77.2 C-1.42108547e-14,77.2 -1.42108547e-14,71.2 6,71.2 C7.5,71.2 8.6,71.6 9.4,72.1 C10.2,71.6 11.3,71.2 12.8,71.2 C14.3,71.2 15.4,71.6 16.2,72.1 C17,71.6 18.1,71.2 19.6,71.2 C25.6,71.2 25.6,77.1 25.6,77.2 L25.6,78.9 L25.6,86.4 L25.6,97.7 L25.6,97.7 C25.6,97.9 25.7,99.1 27,99.1 L27,53.5 C19.7,51.8 19.7,43.9 19.7,43.8 L19.7,43.8 Z"/>
      <path fill="#E1CBB5" fill-rule="nonzero" d="M110.4,158.7 L110.4,153 C110.4,153 110.4,134.3 93.4,130.9 C91.7,130.6 89.8,130.4 87.7,130.4 L87.7,126.5 L87.7,120.5 L87.7,103.5 L87.7,100.3 L87.7,84.3 L87.7,76.5 L70.7,76.5 L48,76.5 C41.9,76.5 38,73.1 36.3,68.8 C35.6,67.2 35.3,65.4 35.3,63.7 C35.3,62 35.6,60.3 36.3,58.6 C38,54.3 42,50.9 48,50.9 L70.7,50.9 L87.7,50.9 L87.7,21.2 C87.7,21.2 87.7,4.2 70.7,4.2 C53.7,4.2 65,4.2 48,4.2 C31,4.2 31,21.2 31,21.2 L31,103.4 L26.7,103.4 C26.2,103.4 25.7,103.4 25.3,103.3 C21,102.4 21,97.8 21,97.8 L21,86.4 L21,78.9 L21,77.2 C21,77.2 21,75.5 19.3,75.5 C17.6,75.5 17.6,77.2 17.6,77.2 C17.6,77.2 17.6,78.9 15.9,78.9 C14.2,78.9 14.2,77.2 14.2,77.2 C14.2,77.2 14.2,75.5 12.5,75.5 C10.8,75.5 10.8,77.2 10.8,77.2 C10.8,77.2 10.8,78.9 9.1,78.9 C7.4,78.9 7.4,77.2 7.4,77.2 C7.4,77.2 7.4,75.5 5.7,75.5 C4,75.5 4,77.2 4,77.2 L4,78.9 L4,86.4 L4,97.7 C4,97.7 4,119.4 25.3,120.3 C25.8,120.3 26.2,120.3 26.7,120.3 L31,120.3 L31,130.2 L31,130.2 L31,130.2 L31,130.2 L31,141.5 C31,147.2 25.3,147.2 25.3,147.2 L14,147.2 L14,164.2 L14,169.9 C15.9,168 19.7,164.2 19.7,164.2 L25.4,164.2 C25.4,164.2 44.1,164.2 47.5,147.2 C47.7,147.2 47.9,147.2 48,147.2 L70.7,147.2 L87.7,147.2 C93.3,147.2 93.4,152.7 93.4,152.9 L93.4,152.9 L93.4,164.2 L110.4,164.2 L116.1,164.2 C114.2,162.5 110.4,158.7 110.4,158.7 Z M63.7,31.2 C65.5,29.4 68,28.3 70.7,28.3 C73.4,28.3 75.9,29.4 77.7,31.2 C79.5,33 80.6,35.5 80.6,38.2 C80.6,40.9 79.5,43.4 77.7,45.2 C75.9,47 73.4,48.1 70.7,48.1 C68,48.1 65.5,47 63.7,45.2 C61.9,43.4 60.8,40.9 60.8,38.2 C60.8,35.5 61.9,33 63.7,31.2 Z M41,31.2 C42.8,29.4 45.3,28.3 48,28.3 C50.7,28.3 53.2,29.4 55,31.2 C56.8,33 57.9,35.5 57.9,38.2 C57.9,40.9 56.8,43.4 55,45.2 C53.2,47 50.7,48.1 48,48.1 C45.3,48.1 42.8,47 41,45.2 C39.2,43.4 38.1,40.9 38.1,38.2 C38.1,35.5 39.2,33 41,31.2 Z"/>
      <path fill="#FFF" d="M48,32.5 C51.1,32.5 53.7,35 53.7,38.2 C53.7,41.3 51.2,43.9 48,43.9 C44.9,43.9 42.3,41.4 42.3,38.2 C42.4,35.1 44.9,32.5 48,32.5 L48,32.5 Z"/>
      <path fill="#E1CBB5" fill-rule="nonzero" d="M26.8 48.9L26.8 38.8C26.2 39.1 25.8 39.5 25.4 39.9 24 41.6 24 43.8 24 43.8 24 43.8 24 46 25.4 47.7 25.7 48.2 26.2 48.6 26.8 48.9zM114.6 97.7L114.6 86.4 114.6 78.9 114.6 77.2C114.6 77.2 114.6 75.5 112.9 75.5 111.2 75.5 111.2 77.2 111.2 77.2 111.2 77.2 111.2 78.9 109.5 78.9 107.8 78.9 107.8 77.2 107.8 77.2 107.8 77.2 107.8 75.5 106.1 75.5 104.4 75.5 104.4 77.2 104.4 77.2 104.4 77.2 104.4 78.9 102.7 78.9 101 78.9 101 77.2 101 77.2 101 77.2 101 75.5 99.3 75.5 97.6 75.5 97.6 77.2 97.6 77.2L97.6 78.9 97.6 86.4 97.6 97.7C97.6 97.7 97.6 102.4 93.3 103.2 92.9 103.3 92.4 103.3 91.9 103.3L91.9 120.3C92.4 120.3 92.9 120.3 93.3 120.3 114.6 119.5 114.6 97.7 114.6 97.7zM94.8 43.9C94.8 43.9 94.8 41.7 93.4 40 93 39.6 92.6 39.2 92 38.9L92 49C92.6 48.7 93 48.3 93.4 47.9 94.8 46.1 94.8 43.9 94.8 43.9z"/>
      <circle cx="48" cy="38.2" r="2.8" fill="#9EA538" fill-rule="nonzero"/>
      <path fill="#FFF" d="M70.7,32.5 C73.8,32.5 76.4,35 76.4,38.2 C76.4,41.3 73.9,43.9 70.7,43.9 C67.6,43.9 65,41.4 65,38.2 C65,35.1 67.6,32.5 70.7,32.5 L70.7,32.5 Z"/>
      <circle cx="70.7" cy="38.2" r="2.8" fill="#9EA538" fill-rule="nonzero"/>
      <path id="human-eye" fill="#BE6C33" d="M31.1,19.9 C31.5,15.9 33.9,4.2 48,4.2 C65,4.2 53.7,4.2 70.7,4.2 C84.8,4.2 87.2,15.9 87.6,19.9 L82,25.5 L76.3,19.8 L70.6,25.5 L64.9,19.8 L59.2,25.5 L53.7,19.8 L48,25.5 L42.3,19.8 L36.6,25.5 L31.1,19.9 L31.1,19.9 Z"/>
    </g>
    <g transform="translate(.7 .4)" id="alien">
      <path fill="#663F4C" fill-rule="nonzero" d="M17,135.1 L0.4,126.8 L17,118.5 L17,118 L0.4,109.7 L17,101.4 L17,100.9 L0.4,92.8 L17,84.5 L17,84 L0.4,75.8 L17,67.5 L17,29 L17,29 C17,29 17,22.1 20.9,16.2 L14,9.3 C13.9,9.2 13.8,9.1 13.8,9 C12.8,9.5 11.5,9.9 9.9,9.9 C8.7,9.9 7.8,8.9 7.8,7.8 C7.8,6.6 8.8,5.7 9.9,5.7 C13.5,5.7 13.5,2.2 13.5,2.1 C13.5,0.9 14.5,0 15.6,0 C16.8,0 17.7,1 17.7,2.1 C17.7,2.1 17.7,4 16.7,6 C16.8,6.1 16.9,6.2 17,6.3 L23.6,12.9 C26.7,10 31.4,7.8 38.2,7.8 L66.5,7.8 C73.3,7.8 77.9,10 81.1,12.9 L87.7,6.3 C87.8,6.2 87.9,6.1 88,6 C87,4.1 87,2.1 87,2.1 C87,0.9 87.9,0 89.1,0 C90.3,0 91.2,0.9 91.2,2.1 C91.2,2.1 91.2,5.7 94.8,5.7 C96,5.7 96.9,6.7 96.9,7.8 C96.9,9 95.9,9.9 94.8,9.9 C93.2,9.9 91.9,9.6 90.9,9 C90.8,9.1 90.8,9.2 90.7,9.3 L83.8,16.2 C87.7,22.1 87.7,29 87.7,29 L87.7,29 L87.7,58.1 L87.7,62.4 L79.4,62.4 L75.6,70 L71.8,62.4 L68,62.4 L64.2,70 L60.4,62.4 L56.6,62.4 L52.8,70 L49.3,62.3 L45.5,62.3 L41.7,69.9 L37.9,62.3 C29,62.5 27.3,73.6 33,77.7 L36,71.7 L39.8,79.3 L43.6,79.3 L47.4,71.7 L51.2,79.3 L55,79.3 L58.8,71.7 L62.6,79.3 L66.3,79.3 L70.1,71.7 L73.9,79.3 L77.7,79.3 L81.5,71.7 L85.3,79.3 C101.7,79.3 118.2,79.3 134.6,79.3 L126.1,86.7 L125.4,87.3 L127.2,88.1 L135.7,92 L127.2,95.9 L125.4,96.7 L126.1,97.3 L134.6,104.7 L87.8,104.7 L87.8,106.8 L134.5,106.8 L126,114.2 L125.3,114.8 L127.1,115.6 L135.6,119.5 L127.1,123.4 L125.3,124.2 L126,124.8 L134.5,132.2 L87.8,132.2 L87.8,133.9 C110.5,136.6 110.5,160.5 110.5,160.6 L110.5,160.6 L110.5,164.5 L122.2,176.2 C109.8,176.2 97.4,176.2 85,176.2 L85,160.6 L85,160.6 C85,160.4 84.9,159.2 83.6,159.2 L40.9,159.2 C35.2,176.2 15.6,176.2 15.6,176.2 L15.6,176.2 L11.7,176.2 L0,188.1 C0,175.7 0,163.3 0,150.9 L15.6,150.9 L15.6,150.9 C15.8,150.9 17,150.8 17,149.5 C17,144.7 17,139.9 17,135.1 L17,135.1 Z"/>
      <path fill="#9EA538" fill-rule="nonzero" d="M117.6,116.2 L123.3,111.2 L106.6,111.2 L83.6,111.2 L83.6,102 L83.6,100.6 L83.6,83.6 L64.4,83.6 L41.8,83.6 L38.3,83.6 C32.2,83.6 28.3,80.2 26.6,75.9 C25.9,74.3 25.6,72.5 25.6,70.8 C25.6,69.1 25.9,67.4 26.6,65.7 C28.3,61.4 32.2,58 38.3,58 L41.8,58 L64.5,58 L83.6,58 L83.6,29 C83.6,29 83.6,12 66.6,12 L64.5,12 L41.8,12 L38.3,12 C21.3,12 21.3,29 21.3,29 L21.3,138.1 L21.3,138.1 L21.3,138.1 L21.3,138.1 L21.3,149.4 C21.3,155.1 15.6,155.1 15.6,155.1 L4.2,155.1 L4.2,172.1 L4.2,177.8 C6.1,175.9 9.9,172.1 9.9,172.1 L15.6,172.1 C15.6,172.1 34.3,172.1 37.7,155.1 C37.9,155.1 38.1,155.1 38.2,155.1 L41.7,155.1 L64.4,155.1 L83.5,155.1 C89.2,155.1 89.2,160.8 89.2,160.8 L89.2,172.1 L106.2,172.1 L106.6,172.1 L111.9,172.1 L106.6,166.8 L106.2,166.4 L106.2,160.7 C106.2,160.7 106.2,138 83.5,138 L83.5,128.1 L106.5,128.1 L123.3,128.1 L117.6,123.1 L125.4,119.6 L117.6,116.2 Z M57.4,39 C59.2,37.2 61.7,36.1 64.4,36.1 C67.1,36.1 69.6,37.2 71.4,39 C73.2,40.8 74.3,43.3 74.3,46 C74.3,48.7 73.2,51.2 71.4,53 C69.6,54.8 67.1,55.9 64.4,55.9 C61.7,55.9 59.2,54.8 57.4,53 C55.6,51.2 54.5,48.7 54.5,46 C54.5,43.3 55.6,40.8 57.4,39 Z M34.8,39 C36.6,37.2 39.1,36.1 41.8,36.1 C44.5,36.1 47,37.2 48.8,39 C50.6,40.8 51.7,43.3 51.7,46 C51.7,48.7 50.6,51.2 48.8,53 C47,54.8 44.5,55.9 41.8,55.9 C39.1,55.9 36.6,54.8 34.8,53 C33,51.2 31.9,48.7 31.9,46 C31.8,43.3 33,40.8 34.8,39 Z"/>
      <path fill="#FFF" d="M64.4 40.3C67.5 40.3 70.1 42.8 70.1 46 70.1 49.1 67.6 51.7 64.4 51.7 61.3 51.7 58.7 49.2 58.7 46 58.8 42.9 61.3 40.3 64.4 40.3zM41.8 40.3C44.9 40.3 47.5 42.8 47.5 46 47.5 49.1 45 51.7 41.8 51.7 38.7 51.7 36.1 49.2 36.1 46 36.1 42.9 38.6 40.3 41.8 40.3L41.8 40.3z"/>
      <polygon fill="#E1CBB5" fill-rule="nonzero" points="17 130.3 17 123.3 9.9 126.8"/>
      <polygon fill="#E1CBB5" fill-rule="nonzero" points="17 79.3 17 72.2 9.9 75.8"/>
      <polygon fill="#E1CBB5" fill-rule="nonzero" points="17 113.3 17 106.2 9.9 109.8"/>
      <polygon fill="#E1CBB5" fill-rule="nonzero" points="17 96.3 17 89.2 9.9 92.8"/>
      <polygon fill="#9EA538" fill-rule="nonzero" points="123.3 83.6 106.6 83.6 87.8 83.6 87.8 100.6 106.6 100.6 123.3 100.6 117.6 95.6 125.4 92.1 117.6 88.5"/>
      <path id="alien-eye" fill="#BE6C33" d="M64.4 43.2C66 43.2 67.2 44.5 67.2 46 67.2 47.5 65.9 48.8 64.4 48.8 62.8 48.8 61.6 47.5 61.6 46 61.6 44.5 62.9 43.2 64.4 43.2L64.4 43.2zM41.8 43.2C43.4 43.2 44.6 44.5 44.6 46 44.6 47.5 43.3 48.8 41.8 48.8 40.2 48.8 39 47.5 39 46 39 44.5 40.2 43.2 41.8 43.2z"/>
    </g>
  </g>
</svg>
